<?xml version="1.0" encoding="UTF-8"?>
<svg width="56px" height="31px" viewBox="0 0 56 31" version="1.1" xmlns="http://www.w3.org/2000/svg" xmlns:xlink="http://www.w3.org/1999/xlink">
    <!-- Generator: Sketch 53.2 (72643) - https://sketchapp.com -->
    <title>@1xGroup 2</title>
    <desc>Created with Sketch.</desc>
    <g id="Page-1" stroke="none" stroke-width="1" fill="none" fill-rule="evenodd">
        <g id="icons" transform="translate(0.000000, -1.000000)" fill-rule="nonzero">
            <g id="Group-2" transform="translate(0.569876, 1.211434)">
                <polygon id="Path" fill="#FFFFFF" points="29.8431242 13.2325661 55.0011242 13.2325661 55.0011242 30.0165661 29.8431242 30.0165661"></polygon>
                <polygon id="Path" fill="#034EA1" points="30.1731242 13.5625661 54.6701242 13.5625661 54.6701242 29.6865661 30.1731242 29.6865661"></polygon>
                <path d="M42.4081242,15.0575661 L42.6481242,15.8015661 L43.4291242,15.7985661 L42.7951242,16.2545661 L43.0391242,16.9975661 L42.4081242,16.5355661 L41.7791242,16.9975661 L42.0241242,16.2545661 L41.3881242,15.7985661 L42.1691242,15.8015661 L42.4081242,15.0575661 Z M42.4081242,26.2525661 L42.6481242,26.9945661 L43.4291242,26.9915661 L42.7951242,27.4515661 L43.0391242,28.1945661 L42.4081242,27.7315661 L41.7791242,28.1945661 L42.0241242,27.4515661 L41.3881242,26.9915661 L42.1691242,26.9945661 L42.4081242,26.2525661 Z M39.6231242,15.8015661 L39.8631242,16.5455661 L40.6441242,16.5425661 L40.0111242,16.9985661 L40.2551242,17.7405661 L39.6231242,17.2785661 L38.9941242,17.7405661 L39.2381242,16.9985661 L38.6061242,16.5425661 L39.3871242,16.5455661 L39.6231242,15.8015661 Z M37.5741242,17.8565661 L37.8111242,18.6005661 L38.5951242,18.5955661 L37.9581242,19.0545661 L38.2031242,19.7965661 L37.5741242,19.3325661 L36.9441242,19.7965661 L37.1881242,19.0545661 L36.5531242,18.5955661 L37.3361242,18.6005661 L37.5741242,17.8565661 Z M36.8181242,20.6495661 L37.0541242,21.3915661 L37.8381242,21.3885661 L37.2021242,21.8455661 L37.4451242,22.5875661 L36.8181242,22.1245661 L36.1871242,22.5875661 L36.4331242,21.8455661 L35.7981242,21.3885661 L36.5801242,21.3915661 L36.8181242,20.6495661 Z M37.5651242,23.4405661 L37.8051242,24.1875661 L38.5841242,24.1825661 L37.9511242,24.6395661 L38.1971242,25.3815661 L37.5651242,24.9175661 L36.9341242,25.3815661 L37.1801242,24.6395661 L36.5451242,24.1825661 L37.3261242,24.1875661 L37.5651242,23.4405661 Z M39.6231242,25.4955661 L39.8631242,26.2395661 L40.6441242,26.2355661 L40.0111242,26.6925661 L40.2551242,27.4335661 L39.6231242,26.9725661 L38.9941242,27.4335661 L39.2381242,26.6925661 L38.6061242,26.2355661 L39.3871242,26.2395661 L39.6231242,25.4955661 Z M45.1971242,15.8015661 L44.9581242,16.5455661 L44.1751242,16.5425661 L44.8101242,16.9985661 L44.5651242,17.7405661 L45.1971242,17.2785661 L45.8261242,17.7405661 L45.5821242,16.9985661 L46.2151242,16.5425661 L45.4351242,16.5455661 L45.1971242,15.8015661 Z M47.2471242,17.8565661 L47.0081242,18.6005661 L46.2261242,18.5955661 L46.8601242,19.0545661 L46.6161242,19.7965661 L47.2471242,19.3325661 L47.8771242,19.7965661 L47.6311242,19.0545661 L48.2651242,18.5955661 L47.4841242,18.6005661 L47.2471242,17.8565661 Z M48.0021242,20.6495661 L47.7641242,21.3915661 L46.9801242,21.3885661 L47.6171242,21.8455661 L47.3721242,22.5875661 L48.0021242,22.1245661 L48.6341242,22.5875661 L48.3881242,21.8455661 L49.0221242,21.3885661 L48.2411242,21.3915661 L48.0021242,20.6495661 Z M47.2511242,23.4405661 L47.0151242,24.1875661 L46.2351242,24.1825661 L46.8691242,24.6395661 L46.6231242,25.3815661 L47.2511242,24.9175661 L47.8851242,25.3815661 L47.6401242,24.6395661 L48.2741242,24.1825661 L47.4931242,24.1875661 L47.2511242,23.4405661 Z M45.1971242,25.4955661 L44.9581242,26.2395661 L44.1751242,26.2355661 L44.8101242,26.6925661 L44.5651242,27.4335661 L45.1971242,26.9725661 L45.8261242,27.4335661 L45.5821242,26.6925661 L46.2151242,26.2355661 L45.4351242,26.2395661 L45.1971242,25.4955661 Z" id="Shape" fill="#FFF100"></path>
                <path d="M33.8551242,9.88456612 L33.8551242,8.49656612 C33.3491242,8.06456612 31.3331242,7.19856612 30.1011242,6.92656612 L30.1011242,7.90456612 C31.5081242,8.24856612 33.2611242,9.26656612 33.8551242,9.88456612 Z M34.8771242,11.9565661 L36.0721242,11.9565661 C36.1081242,10.2045661 34.6861242,9.12056612 34.4831242,8.96356612 L34.4831242,10.6325661 C34.9401242,11.3715661 34.8771242,11.9565661 34.8771242,11.9565661 Z M37.8511242,8.43156612 L37.8511242,9.93756612 C38.4521242,10.5665661 38.8121242,11.0595661 39.1001242,11.9635661 L40.3651242,11.9635661 C40.0261242,10.5805661 39.2221242,9.45056612 37.8511242,8.43156612 Z M37.0821242,9.25756612 L37.0821242,7.89956612 C35.9201242,7.14856612 33.6241242,6.11956612 31.3321242,5.64156612 L31.3321242,6.61456612 C33.5351242,7.14856612 35.8781242,8.29056612 37.0821242,9.25756612 L37.0821242,9.25756612 Z M40.3351242,8.43356612 L40.3351242,7.09056612 C38.9411242,6.21156612 36.0721242,4.98356612 32.6871242,4.26956612 L32.6871242,5.24156612 C35.9391242,6.02656612 38.4051242,7.14656612 40.3351242,8.43356612 L40.3351242,8.43356612 Z M41.2351242,7.66256612 C41.2341242,7.66156612 41.2321242,9.10656612 41.2321242,9.10656612 C42.1201242,9.81156612 42.9801242,10.7405661 43.5521242,11.9635661 L44.8961242,11.9635661 C44.4361242,10.4415661 42.7171242,8.59756612 41.2351242,7.66256612 L41.2351242,7.66256612 Z M43.9631242,7.59756612 L43.9631242,6.25356612 C41.2991242,4.67756612 37.3061242,3.29256612 34.1331242,2.73256612 L34.1331242,3.70156612 C37.7151242,4.42056612 41.9831242,6.19056612 43.9631242,7.59756612 L43.9631242,7.59756612 Z M48.2731242,11.9635661 L49.6801242,11.9635661 C48.6671242,9.54056612 46.1331242,7.59756612 44.9491242,6.85856612 L44.9491242,8.28456612 C46.7421242,9.61156612 47.4051242,10.5605661 48.2731242,11.9635661 Z M47.5351242,6.74856612 L47.5351242,5.35756612 C45.3771242,4.03656612 41.0111242,2.06056612 35.6921242,1.03556612 L35.6921242,2.04556612 C39.7401242,2.88656612 44.8961242,4.89456612 47.5351242,6.74856612 L47.5351242,6.74856612 Z M52.8401242,11.9635661 L54.3801242,11.9635661 C52.6731242,9.05956612 50.7201242,7.39956612 48.6101242,6.02656612 L48.6101242,7.48456612 C50.1741242,8.58256612 51.8491242,10.2205661 52.8401242,11.9635661 L52.8401242,11.9635661 Z M29.0931242,7.63056612 L29.0931242,6.71356612 C27.7091242,6.45356612 25.2741242,6.28756612 24.2051242,6.42656612 L24.2051242,7.14556612 C25.8111242,7.06156612 28.1761242,7.36056612 29.0931242,7.63056612 L29.0931242,7.63056612 Z M23.1271242,7.21056612 L23.1271242,6.52356612 C20.5571242,6.79256612 18.7941242,7.67556612 17.7741242,8.42856612 L17.7741242,9.01956612 C19.2311242,7.84456612 21.2481242,7.35856612 23.1271242,7.21056612 L23.1271242,7.21056612 Z M17.1811242,9.63656612 L17.1811242,8.96856612 C14.8171242,11.6245661 17.7741242,13.8365661 18.0891242,14.0565661 L18.0891242,13.1485661 C16.4361242,11.8975661 16.6301242,10.3745661 17.1811242,9.63656612 Z M18.9841242,13.7105661 L18.9841242,14.6845661 C20.5891242,15.5735661 22.2051242,16.1355661 24.5031242,16.5455661 L24.4871242,15.2255661 C22.9251242,15.1315661 20.7791242,14.6865661 18.9841242,13.7105661 L18.9841242,13.7105661 Z M25.2701242,15.2675661 L25.2641242,16.6415661 C26.6081242,16.7535661 27.8781242,16.7875661 28.5691242,16.7865661 L28.5691242,15.2415661 C27.5481242,15.3095661 25.6571242,15.3225661 25.2701242,15.2675661 L25.2701242,15.2675661 Z M30.3241242,6.37856612 L30.3241242,5.44256612 C28.6691242,5.10656612 25.4611242,4.85756612 23.5611242,5.03556612 L23.5611242,5.76356612 C26.0691242,5.67056612 28.5501242,5.99056612 30.3241242,6.37856612 Z M23.6361242,19.1945661 L23.6361242,17.7235661 C21.1761242,17.5055661 17.3921242,16.6475661 15.0431242,14.9225661 L15.0431242,15.9025661 C17.6191242,17.8455661 21.6941242,18.9235661 23.6361242,19.1945661 Z M14.1511242,15.1665661 L14.1511242,14.1965661 C12.0661242,12.2145661 12.4741242,10.1975661 13.8201242,8.89856612 L13.8201242,8.29056612 C11.2331242,10.6405661 12.1801242,13.4835661 14.1511242,15.1665661 Z M24.5011242,17.8025661 L24.5011242,19.3245661 C25.9981242,19.5335661 27.2971242,19.6025661 28.5681242,19.6025661 L28.5681242,17.9215661 C27.1981242,17.9305661 25.1091242,17.8595661 24.5011242,17.8025661 L24.5011242,17.8025661 Z M14.5171242,7.71856612 L14.5171242,8.29056612 C16.7601242,6.62256612 20.1211242,5.94956612 22.4841242,5.82156612 L22.4841242,5.12256612 C19.5581242,5.31356612 16.1961242,6.43556612 14.5171242,7.71856612 Z M10.8691242,16.0565661 L10.8691242,17.1085661 C14.0851242,20.0095661 19.3761242,21.5875661 22.5731242,22.1395661 L22.5731242,20.5005661 C19.6281242,20.1715661 14.3061242,19.0285661 10.8691242,16.0565661 Z M31.6801242,4.99956612 L31.6801242,4.07656612 C29.6021242,3.69856612 26.0101242,3.28556612 22.6461242,3.59356612 L22.6461242,4.32556612 C25.4731242,4.12756612 29.4641242,4.49556612 31.6801242,4.99956612 Z M23.5201242,20.6065661 L23.5201242,22.3035661 C24.9461242,22.5885661 27.2911242,22.7215661 28.5681242,22.7675661 L28.5681242,20.8775661 C27.8071242,20.9055661 24.4701242,20.7135661 23.5201242,20.6065661 L23.5201242,20.6065661 Z M21.5681242,4.39256612 L21.5681242,3.68156612 C19.0681242,3.89656612 14.5971242,4.78656612 11.6311242,6.79456612 L11.6311242,7.37056612 C14.5171242,5.40556612 18.9841242,4.53256612 21.5681242,4.39256612 L21.5681242,4.39256612 Z M10.8171242,7.95656612 L10.8171242,7.37056612 C9.46112423,8.39356612 6.13312423,11.8445661 9.98412423,16.2115661 L9.98412423,15.1515661 C9.12912423,14.1945661 7.06212423,11.0955661 10.8171242,7.95656612 Z M33.1251242,3.48456612 L33.1251242,2.53756612 C30.6081242,2.04256612 25.7041242,1.61556612 21.8481242,1.99456612 L21.8481242,2.72756612 C25.2571242,2.46256612 30.1051242,2.84756612 33.1251242,3.48456612 Z M22.4711242,23.5125661 L22.4711242,25.3075661 C24.3691242,25.6765661 26.7341242,25.9055661 28.5691242,25.9685661 L28.5691242,23.9315661 C26.3731242,23.8935661 24.4801242,23.7895661 22.4711242,23.5125661 Z M21.4341242,25.1365661 L21.4341242,23.4005661 C16.1561242,22.6545661 10.3401242,20.7325661 6.73712423,17.1985661 L6.73712423,18.3175661 C11.0061242,22.5715661 18.0891242,24.5325661 21.4341242,25.1365661 L21.4341242,25.1365661 Z M8.71512423,5.77856612 L8.71512423,6.34256612 C12.2431242,4.09656612 17.0771242,3.13156612 20.7701242,2.80456612 L20.7701242,2.09056612 C17.2201242,2.39756612 12.0201242,3.60656612 8.71512423,5.77856612 Z M5.84712423,17.2345661 L5.84712423,16.0805661 C4.46612423,14.1975661 3.11012423,10.4815661 7.88412423,6.92456612 L7.88412423,6.34256612 C2.52212423,10.1765661 3.85812423,14.8685661 5.84712423,17.2345661 L5.84712423,17.2345661 Z M2.14412423,17.9585661 L2.14412423,19.2095661 C6.19412423,24.4615661 14.5571242,27.5555661 19.7571242,28.6505661 L19.7571242,26.7325661 C14.2941242,25.8075661 5.99312423,23.1315661 2.14412423,17.9585661 Z M34.6741242,1.82956612 L34.6741242,0.844566116 C32.1841242,0.324566116 26.1331242,-0.346433884 20.8031242,0.208566116 L20.8031242,0.964566116 C25.2591242,0.572566116 30.8821242,1.05156612 34.6741242,1.82956612 Z M19.7271242,1.05756612 L19.7271242,0.317566116 C15.1021242,0.788566116 9.36112423,2.38856612 6.00512423,4.58056612 L6.00512423,5.16656612 C10.2211242,2.58256612 15.8151242,1.42756612 19.7271242,1.05756612 Z M20.8861242,26.9165661 L20.8861242,28.8825661 C22.0741242,29.1845661 26.5801242,29.8305661 28.5691242,29.8445661 L28.5691242,27.5895661 C25.5341242,27.4945661 22.4371242,27.1655661 20.8861242,26.9165661 Z M5.10112423,5.76256612 L5.10112423,5.16756612 C3.74412423,6.04256612 -2.68187577,10.8675661 1.26512423,17.8305661 L1.26512423,16.4265661 C-1.20287577,11.2925661 2.56012423,7.56856612 5.10112423,5.76256612 Z" id="Shape" fill="#667078"></path>
            </g>
        </g>
    </g>
</svg>